<?xml version='1.0' encoding='utf-8'?>
<svg xmlns="http://www.w3.org/2000/svg" width="215.9mm" height="279.4mm" clip-rule="evenodd" fill-rule="evenodd" image-rendering="optimizeQuality" shape-rendering="geometricPrecision" text-rendering="geometricPrecision" version="1.1" viewBox="0 0 21590 27940">
 <defs>
  <style type="text/css">
    .fil4 {fill:#E31E24}
    .fil1 {fill:#FEFEFE;fill-rule:nonzero}
    .fil5 {fill:#FEFEFE;fill-rule:nonzero}
    .fil0 {fill:#CC6F3C;fill-rule:nonzero}
    .fil3 {fill:#E31E24;fill-rule:nonzero}
    .fil2 {fill:#3C322D;fill-rule:nonzero}
    .fil6 {fill:url(#a)}
  </style>
  <radialGradient id="a" cx="10826" cy="10480" r="79.37" gradientTransform="matrix(1 0 0 .73326 0 2795)" gradientUnits="userSpaceOnUse">
   <stop stop-color="#FEFEFE" offset="0"/>
   <stop stop-color="#949493" offset=".58039"/>
   <stop stop-color="#2B2A29" offset="1"/>
  </radialGradient>
 </defs>
   <path class="fil0" d="m11800 11212h-1988c-521 0-943 376-943 840v4015c0 441 401 798 896 798s896-357 896-798v-1343h289v1343c0 441 402 798 897 798s896-357 896-798v-4015c0-464-422-840-943-840z"/>
   <path class="fil0" d="m12164 8286c1066-697 1910 913 777 1422 5 54 8 109 8 165 0 1133-960 2052-2143 2052-1184 0-2143-919-2143-2052 0-56 3-111 7-165-1044-469-338-2152 777-1422 370-291 843-465 1359-465 515 0 989 174 1358 465z"/>
   <path class="fil1" d="m12260 10778c0 633-651 1147-1454 1147-804 0-1455-514-1455-1147s651-1146 1455-1146c803 0 1454 513 1454 1146z"/>
   <path class="fil2" d="m11667 10942c-34 0-63 28-63 63 0 203-165 368-367 368-203 0-368-165-368-368v-138c321-23 573-216 573-451 0-250-285-453-636-453-352 0-636 203-636 453 0 235 251 428 573 451v138c0 203-165 368-368 368s-368-165-368-368c0-35-28-63-63-63s-63 28-63 63c0 272 222 494 494 494 185 0 346-103 431-254 84 151 246 254 431 254 272 0 493-222 493-494 0-35-28-63-63-63z"/>
     <path class="fil3" d="m10748 15015c-45-30-599-398-1087-929-490-530-911-1223-724-1888 151-540 468-655 708-657 435-3 921 361 1149 553 225-198 705-576 1139-585 240-5 559 100 719 636 199 660-211 1365-692 1909-479 545-1026 928-1071 959-21 15-46 22-70 23-25 0-49-7-71-21zm132-2653c-48 45-119 46-167 3-289-261-740-565-1068-563-228 2-381 154-468 467-143 513 172 1071 573 1530 401 460 887 821 1066 947 178-131 658-506 1050-977 393-471 699-1037 547-1546-92-310-247-458-475-453-329 7-774 324-1058 592z"/>
     <path class="fil3" d="m10729 14949c-42-28-552-367-1002-857-452-489-840-1127-668-1741 139-498 432-604 653-605 401-3 849 332 1060 509 207-183 649-530 1050-539 221-5 516 92 663 587 183 608-195 1257-638 1759-442 503-947 856-988 885-19 13-42 20-65 20-22 1-45-5-65-18zm121-2446c-43 41-109 42-153 2-266-240-682-521-985-519-210 2-351 142-431 431-132 472 158 987 528 1411 370 423 817 756 983 873 164-121 606-467 968-901 363-434 644-957 505-1426-85-285-229-422-439-418-303 7-713 299-976 547z"/>
     <path class="fil3" d="m10762 14897c-39-26-517-344-939-802s-786-1056-625-1631c131-467 404-565 612-567 375-3 795 312 992 477 194-171 609-497 984-505 207-4 483 87 621 550 171 570-183 1178-598 1648-414 470-886 801-925 828-18 13-39 19-61 20-21 0-42-6-61-18zm114-2291c-41 39-103 39-144 2-249-225-639-487-922-486-197 2-329 133-404 403-124 443 148 925 495 1322 346 397 765 709 920 818 154-114 568-437 907-844 340-407 603-896 472-1335-79-268-213-396-410-392-284 7-669 280-914 512z"/>
     <path class="fil3" d="m10712 14917c-38-25-500-332-907-775-409-443-761-1020-605-1576 127-451 391-546 591-548 363-2 769 302 959 462 188-166 588-481 951-489 200-4 466 84 600 532 165 550-177 1138-578 1592-400 454-856 774-893 800-18 12-39 19-59 19-21 0-41-5-59-17zm110-2213c-40 37-99 38-139 2-241-218-617-471-892-470-190 2-317 129-390 390-119 428 144 893 478 1276 335 384 740 685 890 790 148-109 548-421 876-814s583-866 456-1291c-77-258-206-382-397-378-273 6-645 270-882 495z"/>
     <path class="fil3" d="m10719 14866c-35-23-467-311-849-725s-711-955-565-1474c118-422 365-512 553-513 339-2 719 282 897 431 175-154 550-449 889-456 188-4 437 78 562 497 155 515-165 1065-540 1490s-802 724-837 748c-16 12-35 18-55 18-19 0-38-5-55-16zm103-2071c-37 35-93 35-130 2-226-204-578-441-834-439-178 1-297 120-366 364-111 400 135 836 448 1195s692 641 832 739c139-102 514-395 820-763 307-367 545-810 427-1207-72-242-193-357-371-354-256 6-604 253-826 463z"/>
     <path class="fil3" d="m10676 14851c-34-22-447-297-812-693s-680-913-541-1410c113-404 350-489 529-490 325-3 688 269 858 412 168-148 526-429 851-437 179-3 417 75 537 476 148 492-158 1018-517 1425-358 406-766 693-800 716-16 11-34 16-52 17-19 0-37-5-53-16zm98-1980c-35 33-89 34-124 1-216-194-552-421-798-419-170 1-284 115-349 348-107 383 128 799 428 1143 299 343 662 612 796 707 132-99 491-378 784-730 293-351 521-774 408-1154-69-232-185-342-355-339-245 6-578 242-790 443z"/>
     <path class="fil3" d="m10735 14815c-33-22-438-291-796-680s-667-895-530-1382c111-396 343-480 518-481 319-2 675 264 842 404 164-145 516-421 834-428 175-4 409 74 526 466 145 483-155 999-506 1397-351 399-752 680-785 702-15 11-33 16-51 17-18 0-36-5-52-15zm96-1942c-34 33-87 33-122 2-211-191-541-414-782-412-166 1-278 113-342 342-105 375 126 783 420 1120 293 336 648 600 780 693 130-96 481-370 768-715 288-345 512-760 401-1132-68-227-181-335-348-332-240 5-567 237-775 434z"/>
     <path class="fil3" d="m10767 14746c-31-21-409-272-743-635s-622-836-494-1290c103-370 319-448 484-449 297-2 629 246 785 377 153-135 481-393 778-399 164-4 382 68 492 435 135 451-145 932-473 1304s-702 634-732 655c-15 10-31 15-48 16-17 0-34-5-49-14zm90-1813c-32 30-81 31-114 1-197-177-505-385-729-384-156 1-261 105-320 319-98 351 117 732 392 1046 273 314 605 561 728 647 121-90 449-346 717-668 269-321 478-709 374-1056-63-212-169-313-325-310-224 5-529 221-723 405z"/>
     <path class="fil3" d="m10788 14591c-28-18-371-247-674-576-304-329-565-758-449-1171 94-335 290-406 439-407 269-2 571 224 712 343 140-123 437-357 707-363 148-3 346 62 446 395 122 409-132 845-429 1183-298 338-637 575-665 595-13 9-28 13-43 14-16 0-31-4-44-13zm81-1645c-29 28-73 28-103 2-179-162-458-350-662-349-141 1-236 96-290 289-89 318 107 664 355 949 249 285 550 509 661 587 110-81 408-313 651-605 244-292 433-644 339-959-57-192-153-284-295-281-203 4-479 201-656 367z"/>
     <path class="fil3" d="m10784 14471c-26-17-342-227-621-530-280-303-521-699-414-1079 86-309 267-374 405-375 248-2 526 206 656 316 128-114 403-329 651-335 137-2 319 58 411 364 113 377-121 779-396 1090-274 312-586 531-612 548-12 9-26 13-40 13s-28-4-40-12zm75-1515c-27 26-68 26-95 1-165-148-423-322-611-321-130 1-217 88-267 267-81 293 99 611 328 874 228 263 506 469 609 541 101-75 375-289 599-558 225-269 399-593 313-884-53-177-141-261-272-258-187 4-442 185-604 338z"/>
     <path class="fil3" d="m10817 14436c-24-15-318-211-578-494-261-282-485-651-386-1005 81-288 249-349 377-350 232-1 490 192 612 295 119-106 375-307 606-312 128-3 298 54 383 339 105 351-113 726-368 1016-256 290-547 494-571 510-11 8-24 12-37 12-13 1-26-3-38-11zm70-1412c-25 24-63 25-88 2-154-139-394-301-569-300-121 1-203 82-249 249-76 273 92 570 305 814 213 245 472 437 568 504 94-70 350-269 559-520 209-250 371-552 291-823-49-165-132-244-253-241-175 4-412 172-564 315z"/>
     <path class="fil3" d="m10847 14539c-23-16-315-210-573-490s-481-645-382-996c80-285 247-345 374-346 229-2 485 190 606 291 118-104 371-303 601-308 126-3 294 53 379 335 104 348-112 720-365 1007s-542 489-565 506c-11 8-24 12-37 12s-26-4-38-11zm70-1399c-25 23-63 24-88 1-152-137-390-298-563-297-121 1-201 82-247 247-75 270 91 564 302 807 211 242 468 432 562 499 94-69 347-267 554-515 208-248 369-547 289-816-49-163-131-241-251-239-173 4-408 171-558 313z"/>
     <path class="fil3" d="m10850 14384c-22-14-289-192-525-449-237-256-441-591-351-913 74-261 227-317 343-317 210-2 445 174 556 267 108-96 340-278 551-283 116-2 270 49 347 308 96 319-102 659-334 923-232 263-497 448-518 464-11 7-22 10-34 10-12 1-24-3-35-10zm64-1282c-23 21-57 22-81 1-139-126-357-273-516-272-110 1-184 74-226 226-69 248 83 517 277 740 194 222 429 396 515 457 86-63 318-244 508-472s338-502 265-748c-45-150-120-221-230-219-159 4-375 157-512 287z"/>
     <path class="fil3" d="m10833 14385c-21-14-283-188-515-440-232-251-432-579-343-894 72-257 222-311 336-312 206-1 436 171 544 262 107-94 334-272 540-277 114-2 265 48 341 302 94 312-101 646-328 904s-487 440-508 454c-10 7-22 11-33 11-12 0-23-3-34-10zm63-1257c-23 22-57 22-79 2-137-124-351-268-506-267-108 1-181 73-222 221-68 243 81 508 272 725 189 218 420 389 505 449 84-62 311-240 497-463 187-223 331-491 259-732-43-147-117-218-225-215-156 3-367 153-501 280z"/>
     <path class="fil3" d="m10841 14351c-20-13-269-179-489-417-220-239-409-550-325-849 68-243 210-294 318-295 195-2 414 162 517 248 101-89 316-259 512-263 108-2 251 45 323 286 89 297-95 613-311 858s-462 417-482 431c-9 7-20 10-31 10-11 1-22-2-32-9zm59-1192c-21 20-53 20-75 1-130-117-332-254-480-253-102 1-171 69-210 210-64 230 77 481 257 688 180 206 399 369 480 425 79-59 295-227 471-439 177-211 314-466 246-695-41-139-111-206-213-203-148 3-348 145-476 266z"/>
     <path class="fil3" d="m10846 14248c-19-12-249-165-452-386-203-220-378-508-301-784 63-224 195-272 295-273 180-1 382 150 477 230 93-82 293-239 473-243 100-2 232 42 299 264 82 274-88 567-288 793-199 226-426 385-445 398-8 7-19 10-29 10s-20-3-29-9zm54-1102c-19 19-49 19-69 1-120-108-307-234-443-233-95 0-159 64-195 194-59 213 72 444 238 635 167 191 369 341 443 394 74-55 273-211 436-406 164-196 290-431 227-642-38-129-102-191-197-189-136 3-321 135-440 246z"/>
     <path class="fil3" d="m10856 14026c-13-8-173-114-314-268-141-153-263-353-209-545 44-156 135-189 204-189 126-1 266 104 332 159 65-57 204-166 329-169 69-1 161 29 208 184 57 190-61 394-200 551s-297 268-309 277c-7 4-14 6-21 6s-14-1-20-6zm38-765c-14 12-34 13-48 0-84-75-214-163-309-162-65 0-110 44-135 135-41 148 50 309 166 441 115 133 256 237 308 274 51-38 189-146 303-282 113-136 201-300 158-447-27-89-72-132-138-130-94 2-223 93-305 171z"/>
     <path class="fil3" d="m10851 14163c-17-12-228-152-414-355-187-202-348-466-276-720 57-206 178-249 270-250 166-1 351 138 438 211 86-76 269-220 434-223 92-2 214 38 275 242 75 252-81 520-264 728s-392 354-409 366c-8 5-17 8-27 8-9 0-18-2-27-7zm51-1012c-18 17-46 17-64 1-110-99-282-215-407-214-87 0-145 58-179 178-54 195 66 408 219 583s338 313 406 361c68-50 251-193 401-372 150-180 266-396 208-590-35-118-94-175-181-173-125 3-295 124-403 226z"/>
     <path class="fil3" d="m10858 14094c-17-11-214-142-388-332-175-189-326-436-259-674 54-193 167-233 253-234 155-1 329 129 410 197 80-71 252-205 407-209 85-1 199 36 256 228 71 235-75 486-247 681-171 194-366 331-382 342-8 5-16 8-25 8s-18-2-25-7zm47-947c-17 16-43 16-60 1-103-93-264-202-381-201-81 1-136 55-167 167-51 183 61 382 205 546 142 164 316 293 380 338 63-47 235-181 375-349s249-370 195-552c-33-110-88-163-170-161-117 2-276 115-377 211z"/>
     <path class="fil3" d="m10945 13936c-13-8-175-116-318-271-143-156-266-358-212-553 45-158 137-192 208-192 127-1 269 106 336 162 66-58 206-169 333-172 70-1 164 30 211 187 58 193-62 399-203 558-140 160-300 272-313 281-7 4-14 6-21 6-7 1-14-1-21-6zm39-776c-14 13-35 14-49 1-84-76-216-165-312-165-67 1-112 45-137 137-42 150 50 313 167 448 118 134 260 240 312 277 52-39 193-148 308-286s204-304 160-453c-27-90-73-134-140-132-96 2-226 95-309 173z"/>
     <path class="fil3" d="m10836 13975c-14-10-190-127-346-295-155-169-289-389-230-601 48-172 149-208 225-209 139-1 293 115 366 176 71-63 224-183 362-186 76-2 178 32 229 202 63 210-68 434-220 607-153 173-327 295-341 305-7 5-15 7-22 7-8 0-16-2-23-6zm42-844c-15 15-38 15-53 1-92-83-235-179-340-179-72 1-121 49-148 149-46 163 54 340 182 486 127 146 282 261 339 301 56-41 209-160 334-310s222-330 174-492c-30-98-79-146-152-144-104 2-246 103-336 188z"/>
     <path class="fil3" d="m10880 13990c-15-9-193-128-351-300-158-171-294-394-234-609 49-175 151-212 229-212 140-1 297 116 371 178 72-64 227-186 367-189 78-1 181 33 233 206 64 213-69 440-224 616s-331 300-346 310c-6 4-14 7-22 7s-16-2-23-7zm42-856c-15 14-38 15-54 1-93-84-238-183-344-182-74 1-123 50-151 151-46 165 55 345 185 494 129 148 286 265 344 305 57-42 212-163 339-315s225-335 176-499c-29-100-79-148-153-146-106 2-250 104-342 191z"/>
     <rect class="fil4" transform="matrix(1.6279 -.065733 .065733 1.6279 9981.3 12752)" width="995" height="836"/>
    <path class="fil5" d="m11429 11950c1 0 516-343 791-138 302 224 396 884-85 1495 1 0 454-1068 42-1383-187-144-368-153-748 26z"/>
   <path class="fil0" d="m13751 12645c0 599-322 976-719 976s-719-377-719-976c0-600 322-977 719-977s719 377 719 977z"/>
   <path class="fil2" d="m10035 9335c0 96-77 174-173 174s-174-78-174-174 78-174 174-174 173 78 173 174z"/>
   <path class="fil2" d="m11882 9335c0 96-78 174-174 174s-174-78-174-174 78-174 174-174 174 78 174 174z"/>
   <ellipse class="fil6" cx="10825" cy="10480" rx="236" ry="127"/>
   <path class="fil0" d="m9306 12645c0 599-322 976-719 976s-719-377-719-976c0-600 322-977 719-977s719 377 719 977z"/>
</svg>